<?xml version="1.0" encoding="iso-8859-1"?>
<!-- Generator: Adobe Illustrator 19.0.0, SVG Export Plug-In . SVG Version: 6.00 Build 0)  -->
<svg version="1.1" id="Capa_1" xmlns="http://www.w3.org/2000/svg" xmlns:xlink="http://www.w3.org/1999/xlink" x="0px" y="0px"
	 viewBox="0 0 511.997 511.997" style="enable-background:new 0 0 511.997 511.997;" xml:space="preserve">
<path style="fill:#FDBD40;" d="M394.528,187.094c-19.895,20.083-52.306,20.236-72.388,0.341s-20.236-52.306-0.341-72.388
	c18.172-18.342,47.161-20.279,67.611-4.522l52.673-52.673L261.925,69.114L89.234,241.797l3.771-3.771l6.032,6.04l-12.072,12.063
	l-6.032-6.032L8.544,322.486L189.52,503.461l72.406-72.388l-6.032-6.032l12.063-12.072l6.04,6.032l-3.771,3.771l172.666-172.691
	l11.261-180.182l-52.988,52.988C414.397,143.174,411.633,169.946,394.528,187.094z M98.226,267.391l12.063-12.063l11.261,11.253
	l-12.063,12.063L98.226,267.391z M120.748,289.905l12.063-12.063l11.261,11.27l-12.063,12.063L120.748,289.905z M143.271,312.428
	l12.063-12.063l11.261,11.261l-12.063,12.063L143.271,312.428z M165.794,334.95l12.063-12.063l11.261,11.261l-12.063,12.063
	L165.794,334.95z M188.317,357.473l12.063-12.063l11.261,11.261l-12.063,12.063L188.317,357.473z M210.839,379.996l12.063-12.063
	l11.261,11.261l-12.063,12.063L210.839,379.996z M244.615,413.771l-11.253-11.261l12.063-12.063l11.253,11.261L244.615,413.771z
	 M298.106,358.676L153.33,213.899l12.063-12.063L310.17,346.613L298.106,358.676z M322.242,334.541L177.465,189.764l12.063-12.063
	l144.777,144.785L322.242,334.541z M346.385,310.423L201.583,165.62l12.072-12.063l144.777,144.777L346.385,310.423z"/>
<path style="fill:#87CEE9;" d="M322.131,114.705c-19.997,19.989-20.006,52.4-0.017,72.388c19.989,19.997,52.4,20.006,72.388,0.017
	c17.139-17.131,19.921-43.928,6.663-64.207l-36.804,36.804c-3.387,3.276-8.787,3.182-12.063-0.213c-3.191-3.31-3.191-8.548,0-11.85
	l37.12-37.12C369.121,94.827,340.328,96.619,322.131,114.705z"/>
<g>
	<polygon style="fill:#195C85;" points="99.036,244.066 93.004,238.026 89.234,241.797 80.933,250.089 80.933,250.098 
		86.964,256.129 	"/>
	
		<rect x="101.346" y="259.025" transform="matrix(-0.7071 0.7071 -0.7071 -0.7071 376.3625 378.0832)" style="fill:#195C85;" width="17.063" height="15.928"/>
	
		<rect x="146.392" y="304.07" transform="matrix(-0.7071 0.7071 -0.7071 -0.7071 485.1116 423.1288)" style="fill:#195C85;" width="17.063" height="15.928"/>
	
		<rect x="123.865" y="281.536" transform="matrix(-0.7071 0.7071 -0.7071 -0.7071 430.7212 400.5884)" style="fill:#195C85;" width="17.063" height="15.928"/>
	
		<rect x="168.91" y="326.547" transform="matrix(-0.7071 0.7071 -0.7071 -0.7071 539.4462 445.5758)" style="fill:#195C85;" width="17.063" height="15.928"/>
	
		<rect x="236.491" y="394.115" transform="matrix(-0.7071 0.7071 -0.7071 -0.7071 702.5916 513.1352)" style="fill:#195C85;" width="17.063" height="15.928"/>
	
		<rect x="213.964" y="371.639" transform="matrix(-0.7071 0.7071 -0.7071 -0.7071 648.2425 490.6943)" style="fill:#195C85;" width="17.063" height="15.928"/>
	
		<rect x="191.443" y="349.11" transform="matrix(-0.7071 0.7071 -0.7071 -0.7071 593.8667 468.1599)" style="fill:#195C85;" width="17.063" height="15.928"/>
	<polygon style="fill:#195C85;" points="267.94,412.97 255.876,425.041 261.908,431.073 261.917,431.073 270.209,422.772 
		273.98,419.001 	"/>
	
		<rect x="271.477" y="129.591" transform="matrix(-0.7071 0.7071 -0.7071 -0.7071 642.0287 197.9956)" style="fill:#195C85;" width="17.063" height="204.75"/>
	
		<rect x="247.33" y="153.729" transform="matrix(-0.7071 0.7071 -0.7071 -0.7071 617.8751 256.2768)" style="fill:#195C85;" width="17.063" height="204.75"/>
	
		<rect x="223.185" y="177.91" transform="matrix(-0.7071 0.7071 -0.7071 -0.7071 593.7556 314.6283)" style="fill:#195C85;" width="17.063" height="204.75"/>
	<path style="fill:#195C85;" d="M497.33,2.612l-55.24,55.24l-52.673,52.673l-37.12,37.12c-3.387,3.276-3.481,8.676-0.213,12.063
		c3.276,3.387,8.676,3.481,12.063,0.213c0.068-0.068,0.145-0.137,0.213-0.213l36.804-36.804l52.988-52.988l55.24-55.24
		c3.387-3.276,3.481-8.676,0.213-12.063s-8.676-3.481-12.063-0.213C497.467,2.475,497.399,2.544,497.33,2.612z"/>
</g>
<rect x="213.964" y="371.639" transform="matrix(-0.7071 0.7071 -0.7071 -0.7071 648.2425 490.6943)" width="17.063" height="15.928"/>
<rect x="191.443" y="349.11" transform="matrix(-0.7071 0.7071 -0.7071 -0.7071 593.8667 468.1599)" width="17.063" height="15.928"/>
<rect x="236.491" y="394.115" transform="matrix(-0.7071 0.7071 -0.7071 -0.7071 702.5916 513.1352)" width="17.063" height="15.928"/>
<rect x="168.91" y="326.547" transform="matrix(-0.7071 0.7071 -0.7071 -0.7071 539.4462 445.5758)" width="17.063" height="15.928"/>
<rect x="146.392" y="304.07" transform="matrix(-0.7071 0.7071 -0.7071 -0.7071 485.1116 423.1288)" width="17.063" height="15.928"/>
<rect x="123.865" y="281.536" transform="matrix(-0.7071 0.7071 -0.7071 -0.7071 430.7212 400.5884)" width="17.063" height="15.928"/>
<rect x="101.346" y="259.025" transform="matrix(-0.7071 0.7071 -0.7071 -0.7071 376.3625 378.0832)" width="17.063" height="15.928"/>
<rect x="271.477" y="129.591" transform="matrix(-0.7071 0.7071 -0.7071 -0.7071 642.0287 197.9956)" width="17.063" height="204.75"/>
<rect x="247.33" y="153.729" transform="matrix(-0.7071 0.7071 -0.7071 -0.7071 617.8751 256.2768)" width="17.063" height="204.75"/>
<rect x="223.185" y="177.91" transform="matrix(-0.7071 0.7071 -0.7071 -0.7071 593.7556 314.6283)" width="17.063" height="204.75"/>
<path d="M497.33,2.612l-46.129,46.129L261.379,60.599c-2.073,0.128-4.035,1.015-5.503,2.483L2.495,316.463
	c-3.327,3.327-3.327,8.736,0,12.063l180.992,180.967c3.327,3.327,8.736,3.327,12.063,0l253.381-253.381
	c1.467-1.467,2.355-3.43,2.483-5.503l11.85-189.805l46.129-46.129c3.387-3.276,3.481-8.676,0.213-12.063s-8.676-3.481-12.063-0.213
	C497.467,2.475,497.399,2.544,497.33,2.612z M434.574,246.344L189.52,491.398L20.599,322.478L265.662,77.432L432.97,66.972
	l-43.553,43.553c-22.352-16.704-54.02-12.132-70.725,10.221s-12.132,54.02,10.221,70.725c22.352,16.704,54.02,12.132,70.725-10.221
	c12.823-17.157,13.437-40.541,1.527-58.346l43.868-43.868L434.574,246.344z M352.298,159.708c3.327,3.327,8.736,3.327,12.063,0
	l24.229-24.229c8.267,16.653,1.467,36.847-15.186,45.114c-16.653,8.267-36.847,1.467-45.114-15.186
	c-8.267-16.653-1.467-36.847,15.186-45.114c10.877-5.4,23.82-4.522,33.869,2.303l-25.048,25.048
	C348.962,150.981,348.962,156.381,352.298,159.708z"/>
<g>
</g>
<g>
</g>
<g>
</g>
<g>
</g>
<g>
</g>
<g>
</g>
<g>
</g>
<g>
</g>
<g>
</g>
<g>
</g>
<g>
</g>
<g>
</g>
<g>
</g>
<g>
</g>
<g>
</g>
</svg>
