<?xml version="1.0" encoding="iso-8859-1"?>
<!-- Generator: Adobe Illustrator 19.0.0, SVG Export Plug-In . SVG Version: 6.00 Build 0)  -->
<svg version="1.1" id="Capa_1" xmlns="http://www.w3.org/2000/svg" xmlns:xlink="http://www.w3.org/1999/xlink" x="0px" y="0px"
	 viewBox="0 0 512.003 512.003" style="enable-background:new 0 0 512.003 512.003;" xml:space="preserve">
<path style="fill:#FFFFFF;" d="M256.001,443.733c-14.14,0-25.6,11.46-25.6,25.6c0,14.14,11.46,25.6,25.6,25.6
	c14.14,0,25.6-11.46,25.6-25.6C281.559,455.211,270.124,443.776,256.001,443.733z M264.535,477.867h-17.067V460.8h17.067V477.867z"
	/>
<path style="fill:#CFDFE8;" d="M256.001,426.667h153.6V85.333h-307.2v341.333H256.001z M187.735,102.4h17.067v17.067h-17.067V102.4z
	 M136.535,110.933c0-4.71,3.823-8.533,8.533-8.533h25.6v17.067h-17.067V179.2h-17.067V110.933z"/>
<path style="fill:#195C85;" d="M256.001,426.667c13.423,0.017,26.069,6.332,34.133,17.067c11.375,15.172,11.375,36.028,0,51.2
	c-8.064,10.735-20.71,17.05-34.133,17.067h110.933c23.561,0,42.667-19.106,42.667-42.667v-42.667H256.001z M341.335,477.867h-17.067
	V460.8h17.067V477.867z M375.468,477.867h-25.6V460.8h25.6V477.867z"/>
<g>
	<rect x="349.868" y="460.8" style="fill:#FDBD40;" width="25.6" height="17.067"/>
	<rect x="358.401" y="34.133" style="fill:#FDBD40;" width="17.067" height="17.067"/>
	<rect x="324.268" y="460.8" style="fill:#FDBD40;" width="17.067" height="17.067"/>
	<rect x="136.535" y="34.133" style="fill:#FDBD40;" width="204.8" height="17.067"/>
	<path style="fill:#FDBD40;" d="M290.135,494.933c11.375-15.172,11.375-36.028,0-51.2c-14.14-18.85-40.883-22.673-59.733-8.533
		c-3.234,2.423-6.11,5.299-8.533,8.533c-11.375,15.172-11.375,36.028,0,51.2c14.14,18.85,40.883,22.673,59.733,8.533
		C284.836,501.043,287.711,498.168,290.135,494.933z M256.001,494.933c-14.14,0-25.6-11.46-25.6-25.6c0-14.14,11.46-25.6,25.6-25.6
		c14.14,0,25.6,11.46,25.6,25.6C281.559,483.456,270.124,494.891,256.001,494.933z"/>
</g>
<rect x="247.468" y="460.8" style="fill:#195C85;" width="17.067" height="17.067"/>
<g>
	<rect x="187.735" y="102.4" style="fill:#FDBD40;" width="17.067" height="17.067"/>
	<path style="fill:#FDBD40;" d="M153.601,119.467h17.067V102.4h-25.6c-4.71,0-8.533,3.823-8.533,8.533V179.2h17.067V119.467z"/>
</g>
<g>
	<path style="fill:#195C85;" d="M392.535,85.333h17.067V42.667C409.601,19.106,390.495,0,366.935,0H145.068
		c-23.561,0-42.667,19.106-42.667,42.667v42.667H392.535z M358.401,34.133h17.067V51.2h-17.067V34.133z M136.535,34.133h204.8V51.2
		h-204.8V34.133z"/>
	<path style="fill:#195C85;" d="M256.001,512c-13.423-0.017-26.069-6.332-34.133-17.067c-11.375-15.172-11.375-36.028,0-51.2
		c8.064-10.735,20.71-17.05,34.133-17.067h-153.6v42.667c0,23.561,19.106,42.667,42.667,42.667H256.001z"/>
</g>
<path d="M366.935,512c23.552-0.026,42.641-19.115,42.667-42.667V42.667C409.576,19.115,390.487,0.026,366.935,0H145.068
	c-23.552,0.026-42.641,19.115-42.667,42.667v426.667c0.026,23.552,19.115,42.641,42.667,42.667H366.935z M256.001,494.933
	c-14.14,0-25.6-11.46-25.6-25.6c0-14.14,11.46-25.6,25.6-25.6c14.14,0,25.6,11.46,25.6,25.6
	C281.601,483.473,270.141,494.933,256.001,494.933z M392.535,469.333c0,14.14-11.46,25.6-25.6,25.6h-77.022
	c11.674-15.07,11.674-36.13,0-51.2h102.622V469.333z M119.468,42.667c0-14.14,11.46-25.6,25.6-25.6h221.867
	c14.14,0,25.6,11.46,25.6,25.6v25.6H119.468V42.667z M119.468,85.333h273.067v341.333H119.468V85.333z M119.468,469.333v-25.6
	H222.09c-11.674,15.07-11.674,36.13,0,51.2h-77.022C130.928,494.933,119.468,483.473,119.468,469.333z"/>
<rect x="136.535" y="34.133" width="204.8" height="17.067"/>
<path d="M136.535,110.933V179.2h17.067v-59.733h17.067V102.4h-25.6C140.358,102.4,136.535,106.223,136.535,110.933z"/>
<rect x="187.735" y="102.4" width="17.067" height="17.067"/>
<rect x="349.868" y="460.8" width="25.6" height="17.067"/>
<rect x="324.268" y="460.8" width="17.067" height="17.067"/>
<rect x="247.468" y="460.8" width="17.067" height="17.067"/>
<rect x="358.401" y="34.133" width="17.067" height="17.067"/>
<g>
</g>
<g>
</g>
<g>
</g>
<g>
</g>
<g>
</g>
<g>
</g>
<g>
</g>
<g>
</g>
<g>
</g>
<g>
</g>
<g>
</g>
<g>
</g>
<g>
</g>
<g>
</g>
<g>
</g>
</svg>
