<?xml version="1.0" encoding="iso-8859-1"?>
<!-- Generator: Adobe Illustrator 19.0.0, SVG Export Plug-In . SVG Version: 6.00 Build 0)  -->
<svg version="1.1" id="Capa_1" xmlns="http://www.w3.org/2000/svg" xmlns:xlink="http://www.w3.org/1999/xlink" x="0px" y="0px"
	 viewBox="0 0 512 512" style="enable-background:new 0 0 512 512;" xml:space="preserve">
<polygon style="fill:#FDBD40;" points="392.533,401.067 392.533,366.933 392.533,349.867 119.467,349.867 119.467,366.933 
	119.467,401.067 119.467,418.133 392.533,418.133 "/>
<path style="fill:#36AFAD;" d="M392.533,230.4c0-18.85-15.283-34.133-34.133-34.133v51.2h-17.067v-51.2H170.667v51.2H153.6v-51.2
	c-18.85,0-34.133,15.283-34.133,34.133v119.467h273.067V230.4z M256,290.133c-18.85,0-34.133-15.283-34.133-34.133
	c0-18.85,15.283-34.133,34.133-34.133c18.85,0,34.133,15.283,34.133,34.133C290.133,274.85,274.85,290.133,256,290.133z"/>
<g>
	<rect x="384" y="435.2" style="fill:#FDBD40;" width="8.533" height="17.067"/>
	<rect x="349.867" y="435.2" style="fill:#FDBD40;" width="17.067" height="17.067"/>
	<rect x="315.733" y="435.2" style="fill:#FDBD40;" width="17.067" height="17.067"/>
	<rect x="281.6" y="435.2" style="fill:#FDBD40;" width="17.067" height="17.067"/>
	<circle style="fill:#FDBD40;" cx="256" cy="256" r="17.067"/>
	<rect x="247.467" y="435.2" style="fill:#FDBD40;" width="17.067" height="17.067"/>
</g>
<path style="fill:#195C85;" d="M256,221.867c-18.85,0-34.133,15.283-34.133,34.133c0,18.85,15.283,34.133,34.133,34.133
	c18.85,0,34.133-15.283,34.133-34.133C290.133,237.15,274.85,221.867,256,221.867z M256,273.067
	c-9.429,0-17.067-7.637-17.067-17.067c0-9.429,7.637-17.067,17.067-17.067c9.429,0,17.067,7.637,17.067,17.067
	C273.041,265.412,265.412,273.041,256,273.067z"/>
<g>
	<rect x="213.333" y="435.2" style="fill:#FDBD40;" width="17.067" height="17.067"/>
	<rect x="179.2" y="435.2" style="fill:#FDBD40;" width="17.067" height="17.067"/>
	<path style="fill:#FDBD40;" d="M170.667,247.467V102.4c0-47.13,38.204-85.333,85.333-85.333s85.333,38.204,85.333,85.333v145.067
		H358.4V102.4C358.4,45.85,312.55,0,256,0S153.6,45.85,153.6,102.4v145.067H170.667z"/>
	<rect x="145.067" y="435.2" style="fill:#FDBD40;" width="17.067" height="17.067"/>
	<rect x="119.467" y="435.2" style="fill:#FDBD40;" width="8.533" height="17.067"/>
</g>
<path style="fill:#36AFAD;" d="M153.6,503.467h204.8c18.85,0,34.133-15.283,34.133-34.133v-17.067H384V435.2h8.533v-17.067H119.467
	V435.2H128v17.067h-8.533v17.067C119.467,488.184,134.75,503.467,153.6,503.467z M349.867,435.2h17.067v17.067h-17.067V435.2z
	 M315.733,435.2H332.8v17.067h-17.067V435.2z M281.6,435.2h17.067v17.067H281.6V435.2z M247.467,435.2h17.067v17.067h-17.067V435.2z
	 M213.333,435.2H230.4v17.067h-17.067V435.2z M179.2,435.2h17.067v17.067H179.2V435.2z M145.067,435.2h17.067v17.067h-17.067V435.2z
	"/>
<path d="M153.6,512h204.8c23.552-0.026,42.641-19.115,42.667-42.667V230.4c-0.026-23.552-19.115-42.641-42.667-42.667V102.4
	C358.4,45.85,312.55,0,256,0S153.6,45.85,153.6,102.4v85.333c-23.552,0.026-42.641,19.115-42.667,42.667v238.933
	C110.959,492.885,130.048,511.974,153.6,512z M170.667,102.4c0-47.13,38.204-85.333,85.333-85.333s85.333,38.204,85.333,85.333
	v85.333H170.667V102.4z M128,230.4c0-14.14,11.46-25.6,25.6-25.6v42.667h17.067V204.8h170.667v42.667H358.4V204.8
	c14.14,0,25.6,11.46,25.6,25.6v119.467H128V230.4z M128,366.933h256v34.133H128V366.933z M128,452.267v-34.133h256v51.2
	c0,14.14-11.46,25.6-25.6,25.6H153.6c-14.14,0-25.6-11.46-25.6-25.6V452.267z"/>
<rect x="145.067" y="435.2" width="17.067" height="17.067"/>
<rect x="315.733" y="435.2" width="17.067" height="17.067"/>
<rect x="179.2" y="435.2" width="17.067" height="17.067"/>
<rect x="281.6" y="435.2" width="17.067" height="17.067"/>
<rect x="213.333" y="435.2" width="17.067" height="17.067"/>
<rect x="349.867" y="435.2" width="17.067" height="17.067"/>
<rect x="247.467" y="435.2" width="17.067" height="17.067"/>
<path d="M256,221.867c-18.85,0-34.133,15.283-34.133,34.133c0,18.85,15.283,34.133,34.133,34.133
	c18.85,0,34.133-15.283,34.133-34.133C290.133,237.15,274.85,221.867,256,221.867z M256,273.067
	c-9.429,0-17.067-7.637-17.067-17.067c0-9.429,7.637-17.067,17.067-17.067c9.429,0,17.067,7.637,17.067,17.067
	C273.067,265.429,265.429,273.067,256,273.067z"/>
<g>
</g>
<g>
</g>
<g>
</g>
<g>
</g>
<g>
</g>
<g>
</g>
<g>
</g>
<g>
</g>
<g>
</g>
<g>
</g>
<g>
</g>
<g>
</g>
<g>
</g>
<g>
</g>
<g>
</g>
</svg>
