<?xml version="1.0" encoding="iso-8859-1"?>
<!-- Generator: Adobe Illustrator 19.0.0, SVG Export Plug-In . SVG Version: 6.00 Build 0)  -->
<svg version="1.1" id="Capa_1" xmlns="http://www.w3.org/2000/svg" xmlns:xlink="http://www.w3.org/1999/xlink" x="0px" y="0px"
	 viewBox="0 0 512 512" style="enable-background:new 0 0 512 512;" xml:space="preserve">
<path style="fill:#87CEE9;" d="M298.667,324.267h-85.333v170.667h85.333V324.267z M281.6,401.067h-17.067V384H281.6V401.067z"/>
<path style="fill:#FFD782;" d="M51.2,512h153.6c-4.71,0-8.533-3.823-8.533-8.533v-8.533h17.067V324.267h85.333v170.667h17.067v8.533
	c0,4.71-3.823,8.533-8.533,8.533h153.6c4.71,0,8.533-3.823,8.533-8.533v-256c-0.017,13.423-6.332,26.069-17.067,34.133
	c-7.364,5.572-16.358,8.567-25.6,8.533c-13.423-0.017-26.069-6.332-34.133-17.067c-14.14,18.85-40.883,22.673-59.733,8.533
	c-3.234-2.423-6.11-5.299-8.533-8.533c-14.14,18.85-40.883,22.673-59.733,8.533c-3.234-2.423-6.11-5.299-8.533-8.533
	c-14.14,18.85-40.883,22.673-59.733,8.533c-3.234-2.423-6.11-5.299-8.533-8.533c-14.14,18.85-40.883,22.673-59.733,8.533
	c-3.234-2.423-6.11-5.299-8.533-8.533c-8.064,10.735-20.71,17.05-34.133,17.067c-9.242,0.034-18.236-2.961-25.6-8.533
	c-10.735-8.064-17.05-20.71-17.067-34.133v256C42.667,508.177,46.49,512,51.2,512z M349.867,349.867c0-4.71,3.823-8.533,8.533-8.533
	h51.2c4.71,0,8.533,3.823,8.533,8.533v51.2c0,4.71-3.823,8.533-8.533,8.533h-51.2c-4.71,0-8.533-3.823-8.533-8.533V349.867z
	 M93.867,349.867c0-4.71,3.823-8.533,8.533-8.533h51.2c4.71,0,8.533,3.823,8.533,8.533v51.2c0,4.71-3.823,8.533-8.533,8.533h-51.2
	c-4.71,0-8.533-3.823-8.533-8.533V349.867z"/>
<g>
	<path style="fill:#36AFAD;" d="M401.067,221.867v25.6c0.034,9.242-2.961,18.236-8.533,25.6c8.064,10.735,20.71,17.05,34.133,17.067
		c9.242,0.034,18.236-2.961,25.6-8.533c10.735-8.064,17.05-20.71,17.067-34.133V8.533c0-4.71-3.823-8.533-8.533-8.533h-59.733
		V221.867z"/>
	<path style="fill:#36AFAD;" d="M358.4,341.333h51.2c4.71,0,8.533,3.823,8.533,8.533v51.2c0,4.71-3.823,8.533-8.533,8.533h-51.2
		c-4.71,0-8.533-3.823-8.533-8.533v-51.2C349.867,345.156,353.69,341.333,358.4,341.333z"/>
</g>
<g>
	<path style="fill:#195C85;" d="M315.733,221.867v25.6c-0.034,9.242,2.961,18.236,8.533,25.6
		c14.14,18.85,40.883,22.673,59.733,8.533c3.234-2.423,6.11-5.299,8.533-8.533c5.572-7.364,8.567-16.358,8.533-25.6V0h-85.333
		V221.867z"/>
	<path style="fill:#195C85;" d="M315.733,503.467v-8.533H196.267v8.533c0,4.71,3.823,8.533,8.533,8.533h102.4
		C311.91,512,315.733,508.177,315.733,503.467z"/>
</g>
<path style="fill:#36AFAD;" d="M264.533,221.867v25.6c0.034,9.242-2.961,18.236-8.533,25.6c14.14,18.85,40.883,22.673,59.733,8.533
	c3.234-2.423,6.11-5.299,8.533-8.533c-5.572-7.364-8.568-16.358-8.533-25.6V0h-51.2V221.867z"/>
<g>
	<rect x="264.533" y="384" style="fill:#195C85;" width="17.067" height="17.067"/>
	<path style="fill:#195C85;" d="M179.2,221.867v25.6c-0.034,9.242,2.961,18.236,8.533,25.6c14.14,18.85,40.883,22.673,59.733,8.533
		c3.234-2.423,6.11-5.299,8.533-8.533c5.572-7.364,8.567-16.358,8.533-25.6V0H179.2V221.867z"/>
</g>
<g>
	<path style="fill:#36AFAD;" d="M128,17.067v230.4c0.034,9.242-2.961,18.236-8.533,25.6c14.14,18.85,40.883,22.673,59.733,8.533
		c3.234-2.423,6.11-5.299,8.533-8.533c-5.572-7.364-8.567-16.358-8.533-25.6V0H128V17.067z"/>
	<path style="fill:#36AFAD;" d="M102.4,341.333h51.2c4.71,0,8.533,3.823,8.533,8.533v51.2c0,4.71-3.823,8.533-8.533,8.533h-51.2
		c-4.71,0-8.533-3.823-8.533-8.533v-51.2C93.867,345.156,97.69,341.333,102.4,341.333z"/>
</g>
<path style="fill:#195C85;" d="M59.733,281.6c7.364,5.572,16.358,8.567,25.6,8.533c13.423-0.017,26.069-6.332,34.133-17.067
	c5.572-7.364,8.567-16.358,8.533-25.6V0H51.2c-4.71,0-8.533,3.823-8.533,8.533v238.933C42.684,260.89,48.998,273.536,59.733,281.6z"
	/>
<path d="M51.2,512h409.6c4.71,0,8.533-3.823,8.533-8.533V8.533c0-4.71-3.823-8.533-8.533-8.533H51.2
	c-4.71,0-8.533,3.823-8.533,8.533v494.933C42.667,508.177,46.49,512,51.2,512z M298.667,494.933h-85.333V324.267h85.333V494.933z
	 M401.067,17.067h51.2v204.8h-51.2V17.067z M401.067,238.933h51.2v8.533c0,14.14-11.46,25.6-25.6,25.6s-25.6-11.46-25.6-25.6
	V238.933z M332.8,17.067H384v204.8h-51.2V17.067z M332.8,238.933H384v8.533c0,14.14-11.46,25.6-25.6,25.6s-25.6-11.46-25.6-25.6
	V238.933z M264.533,17.067h51.2v204.8h-51.2V17.067z M264.533,238.933h51.2v8.533c0,14.14-11.46,25.6-25.6,25.6
	c-14.14,0-25.6-11.46-25.6-25.6V238.933z M196.267,17.067h51.2v204.8h-51.2V17.067z M196.267,238.933h51.2v8.533
	c0,14.14-11.46,25.6-25.6,25.6c-14.14,0-25.6-11.46-25.6-25.6V238.933z M128,17.067h51.2v204.8H128V17.067z M128,238.933h51.2v8.533
	c0,14.14-11.46,25.6-25.6,25.6c-14.14,0-25.6-11.46-25.6-25.6V238.933z M59.733,17.067h51.2v204.8h-51.2V17.067z M59.733,238.933
	h51.2v8.533c0,14.14-11.46,25.6-25.6,25.6s-25.6-11.46-25.6-25.6V238.933z M59.733,281.378
	c18.398,14.199,44.826,10.803,59.034-7.595c0.239-0.307,0.469-0.623,0.7-0.939c13.773,18.85,40.226,22.963,59.076,9.19
	c3.524-2.569,6.622-5.675,9.19-9.19c13.773,18.85,40.226,22.963,59.076,9.19c3.524-2.569,6.622-5.675,9.19-9.19
	c13.773,18.85,40.226,22.963,59.076,9.19c3.524-2.569,6.622-5.675,9.19-9.19c13.773,18.85,40.226,22.963,59.076,9.19
	c3.524-2.569,6.622-5.675,9.19-9.19c13.687,18.79,40.013,22.921,58.795,9.233c0.316-0.23,0.623-0.461,0.939-0.7v213.555H315.733
	v-179.2c0-4.71-3.823-8.533-8.533-8.533H204.8c-4.71,0-8.533,3.823-8.533,8.533v179.2H59.733V281.378z"/>
<rect x="264.533" y="384" width="17.067" height="17.067"/>
<path d="M358.4,409.6h51.2c4.71,0,8.533-3.823,8.533-8.533v-51.2c0-4.71-3.823-8.533-8.533-8.533h-51.2
	c-4.71,0-8.533,3.823-8.533,8.533v51.2C349.867,405.777,353.69,409.6,358.4,409.6z M366.933,358.4h34.133v34.133h-34.133V358.4z"/>
<path d="M153.6,341.333h-51.2c-4.71,0-8.533,3.823-8.533,8.533v51.2c0,4.71,3.823,8.533,8.533,8.533h51.2
	c4.71,0,8.533-3.823,8.533-8.533v-51.2C162.133,345.156,158.31,341.333,153.6,341.333z M145.067,392.533h-34.133V358.4h34.133
	V392.533z"/>
<g>
</g>
<g>
</g>
<g>
</g>
<g>
</g>
<g>
</g>
<g>
</g>
<g>
</g>
<g>
</g>
<g>
</g>
<g>
</g>
<g>
</g>
<g>
</g>
<g>
</g>
<g>
</g>
<g>
</g>
</svg>
