<?xml version="1.0" encoding="iso-8859-1"?>
<!-- Generator: Adobe Illustrator 19.0.0, SVG Export Plug-In . SVG Version: 6.00 Build 0)  -->
<svg version="1.1" id="Capa_1" xmlns="http://www.w3.org/2000/svg" xmlns:xlink="http://www.w3.org/1999/xlink" x="0px" y="0px"
	 viewBox="0 0 512 512" style="enable-background:new 0 0 512 512;" xml:space="preserve">
<polygon style="fill:#FDBD40;" points="221.867,375.467 204.8,375.467 204.8,435.2 221.867,435.2 290.133,435.2 307.2,435.2 
	307.2,375.467 290.133,375.467 "/>
<path style="fill:#195C85;" d="M494.933,307.2H0v25.6c0,23.561,19.106,42.667,42.667,42.667h426.667
	c23.561,0,42.667-19.106,42.667-42.667v-25.6H494.933z M460.8,341.333h-51.2v-17.067h51.2V341.333z"/>
<path style="fill:#87CEE9;" d="M469.333,59.733H42.667C19.106,59.733,0,78.839,0,102.4v204.8h512V102.4
	C512,78.839,492.894,59.733,469.333,59.733z M59.733,213.333H42.667v-68.267h17.067V213.333z M59.733,110.933V128H42.667V93.867
	h17.067V110.933z M179.2,256c0,4.71-3.823,8.533-8.533,8.533H85.333c-4.71,0-8.533-3.823-8.533-8.533V110.933
	c0-4.71,3.823-8.533,8.533-8.533h85.333c4.71,0,8.533,3.823,8.533,8.533V256z M247.467,221.867h-51.2V204.8h51.2V221.867z
	 M247.467,187.733h-51.2v-17.067h51.2V187.733z M247.467,153.6h-51.2v-17.067h51.2V153.6z M247.467,119.467h-51.2V102.4h51.2
	V119.467z M384,221.867V256c0,4.71-3.823,8.533-8.533,8.533h-85.333c-4.71,0-8.533-3.823-8.533-8.533V110.933
	c0-4.71,3.823-8.533,8.533-8.533h85.333c4.71,0,8.533,3.823,8.533,8.533V221.867z M452.267,221.867h-51.2V204.8h51.2V221.867z
	 M452.267,187.733h-51.2v-17.067h51.2V187.733z M452.267,153.6h-51.2v-17.067h51.2V153.6z M452.267,119.467h-51.2V102.4h51.2
	V119.467z"/>
<rect x="409.6" y="324.267" style="fill:#FDBD40;" width="51.2" height="17.067"/>
<rect x="435.2" y="435.2" style="fill:#195C85;" width="17.067" height="17.067"/>
<g>
	<rect x="401.067" y="204.8" style="fill:#F4F4E6;" width="51.2" height="17.067"/>
	<rect x="401.067" y="170.667" style="fill:#F4F4E6;" width="51.2" height="17.067"/>
	<rect x="401.067" y="136.533" style="fill:#F4F4E6;" width="51.2" height="17.067"/>
	<rect x="401.067" y="102.4" style="fill:#F4F4E6;" width="51.2" height="17.067"/>
	<path style="fill:#F4F4E6;" d="M375.467,102.4h-85.333c-4.71,0-8.533,3.823-8.533,8.533V256c0,4.71,3.823,8.533,8.533,8.533h85.333
		c4.71,0,8.533-3.823,8.533-8.533V110.933C384,106.223,380.177,102.4,375.467,102.4z"/>
</g>
<polygon style="fill:#195C85;" points="221.867,435.2 204.8,435.2 93.867,435.2 93.867,452.267 213.333,452.267 298.667,452.267 
	418.133,452.267 418.133,435.2 307.2,435.2 290.133,435.2 "/>
<g>
	<rect x="196.267" y="204.8" style="fill:#F4F4E6;" width="51.2" height="17.067"/>
	<rect x="196.267" y="170.667" style="fill:#F4F4E6;" width="51.2" height="17.067"/>
	<rect x="196.267" y="136.533" style="fill:#F4F4E6;" width="51.2" height="17.067"/>
	<rect x="196.267" y="102.4" style="fill:#F4F4E6;" width="51.2" height="17.067"/>
	<path style="fill:#F4F4E6;" d="M85.333,102.4h85.333c4.71,0,8.533,3.823,8.533,8.533V256c0,4.71-3.823,8.533-8.533,8.533H85.333
		c-4.71,0-8.533-3.823-8.533-8.533V110.933C76.8,106.223,80.623,102.4,85.333,102.4z"/>
</g>
<g>
	<rect x="59.733" y="435.2" style="fill:#195C85;" width="17.067" height="17.067"/>
	<rect x="42.667" y="145.067" style="fill:#195C85;" width="17.067" height="68.267"/>
	<polygon style="fill:#195C85;" points="42.667,128 59.733,128 59.733,110.933 59.733,93.867 42.667,93.867 	"/>
</g>
<path d="M469.333,59.733H42.667C19.115,59.759,0.026,78.848,0,102.4v230.4c0.026,23.552,19.115,42.641,42.667,42.667H204.8V435.2
	H93.867v17.067h324.267V435.2H307.2v-59.733h162.133c23.552-0.026,42.641-19.115,42.667-42.667V102.4
	C511.974,78.848,492.885,59.759,469.333,59.733z M290.133,435.2h-68.267v-59.733h68.267V435.2z M494.933,332.8
	c0,14.14-11.46,25.6-25.6,25.6H42.667c-14.14,0-25.6-11.46-25.6-25.6v-25.6h477.867V332.8z M494.933,290.133H17.067V102.4
	c0-14.14,11.46-25.6,25.6-25.6h426.667c14.14,0,25.6,11.46,25.6,25.6V290.133z"/>
<rect x="42.667" y="93.867" width="17.067" height="34.133"/>
<rect x="42.667" y="145.067" width="17.067" height="68.267"/>
<rect x="59.733" y="435.2" width="17.067" height="17.067"/>
<rect x="435.2" y="435.2" width="17.067" height="17.067"/>
<path d="M170.667,102.4H85.333c-4.71,0-8.533,3.823-8.533,8.533V256c0,4.71,3.823,8.533,8.533,8.533h85.333
	c4.71,0,8.533-3.823,8.533-8.533V110.933C179.2,106.223,175.377,102.4,170.667,102.4z M162.133,247.467H93.867v-128h68.267V247.467z
	"/>
<rect x="196.267" y="102.4" width="51.2" height="17.067"/>
<rect x="196.267" y="136.533" width="51.2" height="17.067"/>
<rect x="196.267" y="170.667" width="51.2" height="17.067"/>
<rect x="196.267" y="204.8" width="51.2" height="17.067"/>
<path d="M375.467,102.4h-85.333c-4.71,0-8.533,3.823-8.533,8.533V256c0,4.71,3.823,8.533,8.533,8.533h85.333
	c4.71,0,8.533-3.823,8.533-8.533V110.933C384,106.223,380.177,102.4,375.467,102.4z M366.933,247.467h-68.267v-128h68.267V247.467z"
	/>
<rect x="401.067" y="102.4" width="51.2" height="17.067"/>
<rect x="401.067" y="136.533" width="51.2" height="17.067"/>
<rect x="401.067" y="170.667" width="51.2" height="17.067"/>
<rect x="401.067" y="204.8" width="51.2" height="17.067"/>
<rect x="409.6" y="324.267" width="51.2" height="17.067"/>
<g>
</g>
<g>
</g>
<g>
</g>
<g>
</g>
<g>
</g>
<g>
</g>
<g>
</g>
<g>
</g>
<g>
</g>
<g>
</g>
<g>
</g>
<g>
</g>
<g>
</g>
<g>
</g>
<g>
</g>
</svg>
