<?xml version="1.0" encoding="iso-8859-1"?>
<!-- Generator: Adobe Illustrator 19.0.0, SVG Export Plug-In . SVG Version: 6.00 Build 0)  -->
<svg version="1.1" id="Capa_1" xmlns="http://www.w3.org/2000/svg" xmlns:xlink="http://www.w3.org/1999/xlink" x="0px" y="0px"
	 viewBox="0 0 512 512" style="enable-background:new 0 0 512 512;" xml:space="preserve">
<path style="fill:#195C85;" d="M469.333,196.267h-68.267v119.467h68.267c4.71,0,8.533-3.823,8.533-8.533V204.8
	C477.867,200.09,474.044,196.267,469.333,196.267z M452.267,281.6H435.2v-17.067h17.067V281.6z"/>
<rect x="435.2" y="264.533" style="fill:#FDBD40;" width="17.067" height="17.067"/>
<path style="fill:#87CEE9;" d="M392.533,315.733h-25.6v153.6c0,4.71-3.823,8.533-8.533,8.533H85.333
	c-4.71,0-8.533-3.823-8.533-8.533V42.667c0-4.71,3.823-8.533,8.533-8.533H358.4c4.71,0,8.533,3.823,8.533,8.533v153.6H409.6v-153.6
	C409.6,19.115,386.816,0,358.912,0H84.821C56.917,0,34.133,19.115,34.133,42.667v426.667c0,23.552,22.784,42.667,50.688,42.667
	H358.4c28.245,0,51.2-19.115,51.2-42.667v-153.6H392.533z"/>
<path style="fill:#FFD782;" d="M384,196.267H230.4c-14.14,0-25.6,11.46-25.6,25.6c0,14.14,11.46,25.6,25.6,25.6h59.733V307.2
	c0,4.71,3.823,8.533,8.533,8.533h102.4V196.267H384z"/>
<path style="fill:#FFFFFF;" d="M298.667,315.733c-4.71,0-8.533-3.823-8.533-8.533v-59.733H230.4c-14.14,0-25.6-11.46-25.6-25.6
	c0-14.14,11.46-25.6,25.6-25.6h136.533v-153.6c0-4.71-3.823-8.533-8.533-8.533H85.333c-4.71,0-8.533,3.823-8.533,8.533v426.667
	c0,4.71,3.823,8.533,8.533,8.533H358.4c4.71,0,8.533-3.823,8.533-8.533v-153.6H298.667z M187.733,68.267H204.8v17.067h-17.067
	V68.267z M187.733,119.467h102.4v17.067h-102.4V119.467z M187.733,145.067h102.4v17.067h-102.4V145.067z M136.533,76.8
	c0-4.71,3.823-8.533,8.533-8.533h25.6v17.067H153.6v59.733h-17.067V76.8z M221.867,401.067c0,4.71-3.823,8.533-8.533,8.533h-68.267
	c-4.71,0-8.533-3.823-8.533-8.533v-85.333c0-4.71,3.823-8.533,8.533-8.533h68.267c4.71,0,8.533,3.823,8.533,8.533V401.067z
	 M307.2,384h-68.267v-17.067H307.2V384z M307.2,349.867h-68.267V332.8H307.2V349.867z"/>
<g>
	<rect x="238.933" y="366.933" style="fill:#195C85;" width="68.267" height="17.067"/>
	<rect x="238.933" y="332.8" style="fill:#195C85;" width="68.267" height="17.067"/>
	<rect x="187.733" y="145.067" style="fill:#195C85;" width="102.4" height="17.067"/>
	<rect x="187.733" y="119.467" style="fill:#195C85;" width="102.4" height="17.067"/>
	<path style="fill:#195C85;" d="M145.067,307.2h68.267c4.71,0,8.533,3.823,8.533,8.533v85.333c0,4.71-3.823,8.533-8.533,8.533
		h-68.267c-4.71,0-8.533-3.823-8.533-8.533v-85.333C136.533,311.023,140.356,307.2,145.067,307.2z"/>
	<rect x="187.733" y="68.267" style="fill:#195C85;" width="17.067" height="17.067"/>
	<path style="fill:#195C85;" d="M153.6,85.333h17.067V68.267h-25.6c-4.71,0-8.533,3.823-8.533,8.533v68.267H153.6V85.333z"/>
</g>
<path d="M469.333,196.267H409.6v-153.6C409.6,19.14,386.859,0,358.903,0H84.83C56.875,0,34.133,19.14,34.133,42.667v426.667
	C34.133,492.86,56.875,512,84.83,512H358.4c28.237,0,51.2-19.14,51.2-42.667v-153.6h59.733c4.71,0,8.533-3.823,8.533-8.533V204.8
	C477.867,200.09,474.044,196.267,469.333,196.267z M392.533,196.267h-25.6v-153.6c0-4.71-3.823-8.533-8.533-8.533H85.333
	c-4.71,0-8.533,3.823-8.533,8.533v426.667c0,4.71,3.823,8.533,8.533,8.533H358.4c4.71,0,8.533-3.823,8.533-8.533v-153.6h25.6v153.6
	c0,14.114-15.309,25.6-34.133,25.6H84.83c-18.534,0-33.63-11.486-33.63-25.6V42.667c0-14.114,15.095-25.6,33.63-25.6h274.074
	c18.534,0,33.63,11.486,33.63,25.6V196.267z M230.4,247.467h59.733V307.2c0,4.71,3.823,8.533,8.533,8.533h51.2V460.8h-256V51.2h256
	v145.067H230.4c-14.14,0-25.6,11.46-25.6,25.6C204.8,236.006,216.26,247.467,230.4,247.467z M307.2,298.667v-59.733
	c0-4.71-3.823-8.533-8.533-8.533H230.4c-4.71,0-8.533-3.823-8.533-8.533c0-4.71,3.823-8.533,8.533-8.533H384v85.333H307.2z
	 M460.8,298.667h-59.733v-85.333H460.8V298.667z"/>
<path d="M153.6,85.333h17.067V68.267h-25.6c-4.71,0-8.533,3.823-8.533,8.533v68.267H153.6V85.333z"/>
<rect x="187.733" y="68.267" width="17.067" height="17.067"/>
<rect x="187.733" y="119.467" width="102.4" height="17.067"/>
<rect x="187.733" y="145.067" width="102.4" height="17.067"/>
<rect x="435.2" y="264.533" width="17.067" height="17.067"/>
<path d="M136.533,315.733v85.333c0,4.71,3.823,8.533,8.533,8.533h68.267c4.71,0,8.533-3.823,8.533-8.533v-85.333
	c0-4.71-3.823-8.533-8.533-8.533h-68.267C140.356,307.2,136.533,311.023,136.533,315.733z M153.6,324.267h51.2v68.267h-51.2V324.267
	z"/>
<rect x="238.933" y="332.8" width="68.267" height="17.067"/>
<rect x="238.933" y="366.933" width="68.267" height="17.067"/>
<g>
</g>
<g>
</g>
<g>
</g>
<g>
</g>
<g>
</g>
<g>
</g>
<g>
</g>
<g>
</g>
<g>
</g>
<g>
</g>
<g>
</g>
<g>
</g>
<g>
</g>
<g>
</g>
<g>
</g>
</svg>
