<?xml version="1.0" encoding="iso-8859-1"?>
<!-- Generator: Adobe Illustrator 19.0.0, SVG Export Plug-In . SVG Version: 6.00 Build 0)  -->
<svg version="1.1" id="Capa_1" xmlns="http://www.w3.org/2000/svg" xmlns:xlink="http://www.w3.org/1999/xlink" x="0px" y="0px"
	 viewBox="0 0 511.996 511.996" style="enable-background:new 0 0 511.996 511.996;" xml:space="preserve">
<g>
	<path style="fill:#195C85;" d="M144.108,379.95l57.936-57.936c-4.411-3.609-8.455-7.653-12.063-12.063l-57.936,57.936
		C136.711,371.206,140.789,375.283,144.108,379.95z"/>
	<path style="fill:#195C85;" d="M309.949,322.014l57.936,57.936c3.319-4.667,7.397-8.745,12.063-12.063l-57.936-57.936
		C318.403,314.361,314.359,318.405,309.949,322.014z"/>
	<path style="fill:#195C85;" d="M264.528,171.12v-69.454c-5.639,1.024-11.423,1.024-17.063,0v69.454
		C253.138,170.54,258.854,170.54,264.528,171.12z"/>
	<path style="fill:#195C85;" d="M247.465,340.877v69.454c5.639-1.024,11.423-1.024,17.063,0v-69.454
		C258.854,341.457,253.138,341.457,247.465,340.877z"/>
</g>
<path style="fill:#E97424;" d="M202.044,322.014c36.531,29.868,90.372,24.468,120.241-12.063s24.468-90.372-12.063-120.241
	s-90.373-24.468-120.241,12.063c-25.731,31.472-25.731,76.705,0,108.177C193.59,314.37,197.625,318.405,202.044,322.014z
	 M255.996,204.81c28.273,0,51.188,22.915,51.188,51.188s-22.915,51.188-51.188,51.188s-51.188-22.915-51.188-51.188
	C204.834,227.742,227.741,204.836,255.996,204.81z"/>
<g>
	<circle style="fill:#FDBD40;" cx="256.022" cy="256.024" r="51.188"/>
	<path style="fill:#FDBD40;" d="M264.528,101.666c25.961-4.709,43.186-29.578,38.476-55.539
		c-4.709-25.961-29.578-43.186-55.539-38.476s-43.186,29.578-38.476,55.539c4.121,22.727,23.913,39.244,47.008,39.244
		C258.854,102.417,261.712,102.161,264.528,101.666z M238.934,51.246c0-9.427,7.636-17.063,17.063-17.063
		c9.427,0,17.063,7.636,17.063,17.063s-7.636,17.063-17.063,17.063C246.569,68.309,238.934,60.673,238.934,51.246z"/>
</g>
<circle style="fill:#87CDE8;" cx="102.458" cy="409.588" r="34.125"/>
<path style="fill:#87CEE9;" d="M132.044,367.887c-23.103-16.44-55.164-11.04-71.612,12.063
	c-16.44,23.103-11.04,55.164,12.063,71.612c23.103,16.44,55.164,11.04,71.612-12.063c12.686-17.822,12.686-41.727,0-59.549
	C140.798,375.275,136.72,371.197,132.044,367.887z M102.432,443.688c-18.846,0-34.125-15.28-34.125-34.125
	s15.28-34.125,34.125-34.125s34.125,15.28,34.125,34.125S121.278,443.688,102.432,443.688z"/>
<circle style="fill:#87CDE8;" cx="409.586" cy="409.588" r="34.125"/>
<path style="fill:#87CEE9;" d="M367.885,379.95c-16.44,23.103-11.04,55.164,12.063,71.612c23.103,16.448,55.164,11.04,71.612-12.063
	c16.448-23.103,11.04-55.164-12.063-71.612c-17.822-12.686-41.727-12.686-59.549,0C375.273,371.197,371.195,375.275,367.885,379.95z
	 M409.561,375.437c18.846,0,34.125,15.28,34.125,34.125s-15.28,34.125-34.125,34.125s-34.125-15.28-34.125-34.125
	S390.715,375.437,409.561,375.437z"/>
<circle style="fill:#87CDE8;" cx="256.022" cy="460.776" r="34.125"/>
<path style="fill:#87CEE9;" d="M247.465,410.33c-25.961,4.709-43.186,29.578-38.476,55.539s29.578,43.186,55.539,38.476
	s43.186-29.578,38.476-55.539c-4.121-22.728-23.913-39.244-47.008-39.244C253.138,409.579,250.28,409.835,247.465,410.33z
	 M290.122,460.75c0,18.846-15.28,34.125-34.125,34.125s-34.125-15.28-34.125-34.125s15.28-34.125,34.125-34.125
	S290.122,441.905,290.122,460.75z"/>
<circle style="fill:#195C85;" cx="256.022" cy="51.272" r="17.063"/>
<path d="M255.996,307.186c28.273,0,51.188-22.915,51.188-51.188s-22.915-51.188-51.188-51.188s-51.188,22.915-51.188,51.188
	C204.834,284.254,227.741,307.161,255.996,307.186z M255.996,221.873c18.846,0,34.125,15.28,34.125,34.125
	s-15.28,34.125-34.125,34.125s-34.125-15.28-34.125-34.125S237.151,221.873,255.996,221.873z"/>
<path d="M102.432,358.374c-28.358-0.085-51.418,22.83-51.512,51.188c-0.085,28.358,22.83,51.418,51.188,51.512
	c28.358,0.094,51.418-22.83,51.512-51.188c0.034-10.724-3.293-21.192-9.512-29.936l57.936-57.936
	c12.951,10.63,28.751,17.191,45.421,18.863v69.454c-27.872,4.709-46.649,31.131-41.94,59.003
	c4.709,27.872,31.131,46.649,59.003,41.94s46.649-31.131,41.94-59.003c-3.634-21.482-20.458-38.306-41.94-41.94v-69.454
	c16.67-1.672,32.47-8.233,45.421-18.863l57.936,57.936c-16.44,23.103-11.04,55.164,12.063,71.612
	c23.103,16.448,55.164,11.04,71.612-12.063c16.448-23.103,11.04-55.164-12.063-71.612c-17.822-12.686-41.727-12.686-59.549,0
	l-57.936-57.936c29.834-36.42,24.493-90.117-11.927-119.951c-12.993-10.647-28.844-17.216-45.557-18.88v-69.454
	c27.872-4.709,46.649-31.131,41.94-59.003c-4.709-27.872-31.131-46.649-59.003-41.94s-46.649,31.131-41.94,59.003
	c3.634,21.482,20.458,38.306,41.94,41.94v69.454c-46.846,4.667-81.031,46.428-76.364,93.273c1.664,16.713,8.233,32.564,18.88,45.557
	l-57.936,57.936C123.411,361.702,113.054,358.374,102.432,358.374z M409.561,375.437c18.846,0,34.125,15.28,34.125,34.125
	s-15.28,34.125-34.125,34.125s-34.125-15.28-34.125-34.125S390.715,375.437,409.561,375.437z M290.122,460.75
	c0,18.846-15.28,34.125-34.125,34.125s-34.125-15.28-34.125-34.125s15.28-34.125,34.125-34.125S290.122,441.905,290.122,460.75z
	 M221.871,51.246c0-18.846,15.28-34.125,34.125-34.125s34.125,15.28,34.125,34.125s-15.28,34.125-34.125,34.125
	S221.871,70.092,221.871,51.246z M187.746,255.998c0-37.691,30.559-68.251,68.251-68.251s68.251,30.559,68.251,68.251
	s-30.559,68.251-68.251,68.251C218.322,324.206,187.788,293.673,187.746,255.998z M102.432,443.688
	c-18.846,0-34.125-15.28-34.125-34.125s15.28-34.125,34.125-34.125s34.125,15.28,34.125,34.125S121.278,443.688,102.432,443.688z"/>
<circle cx="256.022" cy="51.272" r="17.063"/>
<g>
</g>
<g>
</g>
<g>
</g>
<g>
</g>
<g>
</g>
<g>
</g>
<g>
</g>
<g>
</g>
<g>
</g>
<g>
</g>
<g>
</g>
<g>
</g>
<g>
</g>
<g>
</g>
<g>
</g>
</svg>
